<mxfile host="Electron" agent="Mozilla/5.0 (Windows NT 10.0; Win64; x64) AppleWebKit/537.36 (KHTML, like Gecko) draw.io/26.0.4 Chrome/128.0.6613.186 Electron/32.2.5 Safari/537.36" version="26.0.4">
  <diagram name="Página-1" id="85a92BywlTFrTwVx_-yH">
    <mxGraphModel dx="1707" dy="1693" grid="1" gridSize="10" guides="1" tooltips="1" connect="1" arrows="1" fold="1" page="1" pageScale="1" pageWidth="827" pageHeight="1169" math="0" shadow="0">
      <root>
        <mxCell id="0" />
        <mxCell id="1" parent="0" />
        <mxCell id="rsNm4_ssENzMFWjYRmB5-73" value="" style="rounded=0;whiteSpace=wrap;html=1;" parent="1" vertex="1">
          <mxGeometry x="414" y="-990" width="836" height="750" as="geometry" />
        </mxCell>
        <mxCell id="rsNm4_ssENzMFWjYRmB5-63" value="" style="rounded=0;whiteSpace=wrap;html=1;" parent="1" vertex="1">
          <mxGeometry x="-720" y="-990" width="1100" height="750" as="geometry" />
        </mxCell>
        <mxCell id="rsNm4_ssENzMFWjYRmB5-47" value="" style="rounded=0;whiteSpace=wrap;html=1;" parent="1" vertex="1">
          <mxGeometry x="-390" y="-900" width="730" height="570" as="geometry" />
        </mxCell>
        <mxCell id="rsNm4_ssENzMFWjYRmB5-10" style="edgeStyle=orthogonalEdgeStyle;rounded=0;orthogonalLoop=1;jettySize=auto;html=1;exitX=1;exitY=0.25;exitDx=0;exitDy=0;" parent="1" source="rsNm4_ssENzMFWjYRmB5-5" target="rsNm4_ssENzMFWjYRmB5-8" edge="1">
          <mxGeometry relative="1" as="geometry" />
        </mxCell>
        <mxCell id="rsNm4_ssENzMFWjYRmB5-11" style="edgeStyle=orthogonalEdgeStyle;rounded=0;orthogonalLoop=1;jettySize=auto;html=1;exitX=1;exitY=0.75;exitDx=0;exitDy=0;strokeColor=#0000FF;" parent="1" source="rsNm4_ssENzMFWjYRmB5-5" target="rsNm4_ssENzMFWjYRmB5-9" edge="1">
          <mxGeometry relative="1" as="geometry" />
        </mxCell>
        <mxCell id="rsNm4_ssENzMFWjYRmB5-5" value="&amp;lt; CALCULAR RUTAS &amp;gt;" style="rounded=1;whiteSpace=wrap;html=1;fillColor=#e1d5e7;strokeColor=#9673a6;" parent="1" vertex="1">
          <mxGeometry x="-330" y="-740" width="160" height="60" as="geometry" />
        </mxCell>
        <mxCell id="rsNm4_ssENzMFWjYRmB5-8" value="Mapa de rutas" style="shape=parallelogram;perimeter=parallelogramPerimeter;whiteSpace=wrap;html=1;fixedSize=1;fillColor=#d5e8d4;strokeColor=#82b366;" parent="1" vertex="1">
          <mxGeometry x="-100" y="-800" width="140" height="60" as="geometry" />
        </mxCell>
        <mxCell id="rsNm4_ssENzMFWjYRmB5-38" style="edgeStyle=orthogonalEdgeStyle;rounded=0;orthogonalLoop=1;jettySize=auto;html=1;entryX=0;entryY=0.25;entryDx=0;entryDy=0;strokeColor=#0000FF;" parent="1" source="rsNm4_ssENzMFWjYRmB5-9" target="rsNm4_ssENzMFWjYRmB5-35" edge="1">
          <mxGeometry relative="1" as="geometry" />
        </mxCell>
        <mxCell id="rsNm4_ssENzMFWjYRmB5-9" value="Lista de rutas" style="shape=parallelogram;perimeter=parallelogramPerimeter;whiteSpace=wrap;html=1;fixedSize=1;fillColor=#d5e8d4;strokeColor=#82b366;" parent="1" vertex="1">
          <mxGeometry x="-100" y="-680" width="140" height="60" as="geometry" />
        </mxCell>
        <mxCell id="rsNm4_ssENzMFWjYRmB5-14" value="Actividad" style="swimlane;fontStyle=0;childLayout=stackLayout;horizontal=1;startSize=30;horizontalStack=0;resizeParent=1;resizeParentMax=0;resizeLast=0;collapsible=1;marginBottom=0;whiteSpace=wrap;html=1;" parent="1" vertex="1">
          <mxGeometry x="-690" y="-760" width="190" height="360" as="geometry" />
        </mxCell>
        <mxCell id="rsNm4_ssENzMFWjYRmB5-15" value="- Id" style="text;strokeColor=none;fillColor=none;align=left;verticalAlign=middle;spacingLeft=4;spacingRight=4;overflow=hidden;points=[[0,0.5],[1,0.5]];portConstraint=eastwest;rotatable=0;whiteSpace=wrap;html=1;" parent="rsNm4_ssENzMFWjYRmB5-14" vertex="1">
          <mxGeometry y="30" width="190" height="30" as="geometry" />
        </mxCell>
        <mxCell id="rsNm4_ssENzMFWjYRmB5-16" value="- Actividad predecesora" style="text;strokeColor=none;fillColor=none;align=left;verticalAlign=middle;spacingLeft=4;spacingRight=4;overflow=hidden;points=[[0,0.5],[1,0.5]];portConstraint=eastwest;rotatable=0;whiteSpace=wrap;html=1;" parent="rsNm4_ssENzMFWjYRmB5-14" vertex="1">
          <mxGeometry y="60" width="190" height="30" as="geometry" />
        </mxCell>
        <mxCell id="rsNm4_ssENzMFWjYRmB5-18" value="- Tiempo pesimista" style="text;strokeColor=none;fillColor=none;align=left;verticalAlign=middle;spacingLeft=4;spacingRight=4;overflow=hidden;points=[[0,0.5],[1,0.5]];portConstraint=eastwest;rotatable=0;whiteSpace=wrap;html=1;" parent="rsNm4_ssENzMFWjYRmB5-14" vertex="1">
          <mxGeometry y="90" width="190" height="30" as="geometry" />
        </mxCell>
        <mxCell id="rsNm4_ssENzMFWjYRmB5-19" value="- Tiempo promedio" style="text;strokeColor=none;fillColor=none;align=left;verticalAlign=middle;spacingLeft=4;spacingRight=4;overflow=hidden;points=[[0,0.5],[1,0.5]];portConstraint=eastwest;rotatable=0;whiteSpace=wrap;html=1;" parent="rsNm4_ssENzMFWjYRmB5-14" vertex="1">
          <mxGeometry y="120" width="190" height="30" as="geometry" />
        </mxCell>
        <mxCell id="rsNm4_ssENzMFWjYRmB5-17" value="- Tiempo optimista" style="text;strokeColor=none;fillColor=none;align=left;verticalAlign=middle;spacingLeft=4;spacingRight=4;overflow=hidden;points=[[0,0.5],[1,0.5]];portConstraint=eastwest;rotatable=0;whiteSpace=wrap;html=1;" parent="rsNm4_ssENzMFWjYRmB5-14" vertex="1">
          <mxGeometry y="150" width="190" height="30" as="geometry" />
        </mxCell>
        <mxCell id="rsNm4_ssENzMFWjYRmB5-28" value="- Cálculo de tiempo estimado" style="text;strokeColor=none;fillColor=none;align=left;verticalAlign=middle;spacingLeft=4;spacingRight=4;overflow=hidden;points=[[0,0.5],[1,0.5]];portConstraint=eastwest;rotatable=0;whiteSpace=wrap;html=1;" parent="rsNm4_ssENzMFWjYRmB5-14" vertex="1">
          <mxGeometry y="180" width="190" height="30" as="geometry" />
        </mxCell>
        <mxCell id="rsNm4_ssENzMFWjYRmB5-23" value="- Costo" style="text;strokeColor=none;fillColor=none;align=left;verticalAlign=middle;spacingLeft=4;spacingRight=4;overflow=hidden;points=[[0,0.5],[1,0.5]];portConstraint=eastwest;rotatable=0;whiteSpace=wrap;html=1;" parent="rsNm4_ssENzMFWjYRmB5-14" vertex="1">
          <mxGeometry y="210" width="190" height="30" as="geometry" />
        </mxCell>
        <mxCell id="rsNm4_ssENzMFWjYRmB5-24" value="- Aceleración aplicable" style="text;strokeColor=none;fillColor=none;align=left;verticalAlign=middle;spacingLeft=4;spacingRight=4;overflow=hidden;points=[[0,0.5],[1,0.5]];portConstraint=eastwest;rotatable=0;whiteSpace=wrap;html=1;" parent="rsNm4_ssENzMFWjYRmB5-14" vertex="1">
          <mxGeometry y="240" width="190" height="30" as="geometry" />
        </mxCell>
        <mxCell id="rsNm4_ssENzMFWjYRmB5-65" value="- Costo de aceleración" style="text;strokeColor=none;fillColor=none;align=left;verticalAlign=middle;spacingLeft=4;spacingRight=4;overflow=hidden;points=[[0,0.5],[1,0.5]];portConstraint=eastwest;rotatable=0;whiteSpace=wrap;html=1;" parent="rsNm4_ssENzMFWjYRmB5-14" vertex="1">
          <mxGeometry y="270" width="190" height="30" as="geometry" />
        </mxCell>
        <mxCell id="rsNm4_ssENzMFWjYRmB5-66" value="- Costo actual" style="text;strokeColor=none;fillColor=none;align=left;verticalAlign=middle;spacingLeft=4;spacingRight=4;overflow=hidden;points=[[0,0.5],[1,0.5]];portConstraint=eastwest;rotatable=0;whiteSpace=wrap;html=1;fontColor=#0000FF;" parent="rsNm4_ssENzMFWjYRmB5-14" vertex="1">
          <mxGeometry y="300" width="190" height="30" as="geometry" />
        </mxCell>
        <mxCell id="rsNm4_ssENzMFWjYRmB5-22" value="- Porcentaje de avance" style="text;strokeColor=none;fillColor=none;align=left;verticalAlign=middle;spacingLeft=4;spacingRight=4;overflow=hidden;points=[[0,0.5],[1,0.5]];portConstraint=eastwest;rotatable=0;whiteSpace=wrap;html=1;fontColor=#0000FF;" parent="rsNm4_ssENzMFWjYRmB5-14" vertex="1">
          <mxGeometry y="330" width="190" height="30" as="geometry" />
        </mxCell>
        <mxCell id="rsNm4_ssENzMFWjYRmB5-21" value="Tiempo esperado" style="rounded=0;whiteSpace=wrap;html=1;" parent="1" vertex="1">
          <mxGeometry x="-690" y="-840" width="190" height="60" as="geometry" />
        </mxCell>
        <mxCell id="rsNm4_ssENzMFWjYRmB5-32" style="edgeStyle=orthogonalEdgeStyle;rounded=0;orthogonalLoop=1;jettySize=auto;html=1;entryX=0;entryY=0.5;entryDx=0;entryDy=0;exitX=1;exitY=0.25;exitDx=0;exitDy=0;" parent="1" source="rsNm4_ssENzMFWjYRmB5-27" target="rsNm4_ssENzMFWjYRmB5-30" edge="1">
          <mxGeometry relative="1" as="geometry" />
        </mxCell>
        <mxCell id="rsNm4_ssENzMFWjYRmB5-33" style="edgeStyle=orthogonalEdgeStyle;rounded=0;orthogonalLoop=1;jettySize=auto;html=1;exitX=1;exitY=0.75;exitDx=0;exitDy=0;" parent="1" source="rsNm4_ssENzMFWjYRmB5-27" target="rsNm4_ssENzMFWjYRmB5-31" edge="1">
          <mxGeometry relative="1" as="geometry" />
        </mxCell>
        <mxCell id="rsNm4_ssENzMFWjYRmB5-27" value="&amp;lt; CALCULAR PROBABILIDADES &amp;gt;" style="rounded=1;whiteSpace=wrap;html=1;fillColor=#e1d5e7;strokeColor=#9673a6;" parent="1" vertex="1">
          <mxGeometry x="-330" y="-500" width="160" height="60" as="geometry" />
        </mxCell>
        <mxCell id="rsNm4_ssENzMFWjYRmB5-36" style="edgeStyle=orthogonalEdgeStyle;rounded=0;orthogonalLoop=1;jettySize=auto;html=1;entryX=0;entryY=0.5;entryDx=0;entryDy=0;" parent="1" source="rsNm4_ssENzMFWjYRmB5-30" target="rsNm4_ssENzMFWjYRmB5-35" edge="1">
          <mxGeometry relative="1" as="geometry" />
        </mxCell>
        <mxCell id="rsNm4_ssENzMFWjYRmB5-30" value="Varianzas" style="shape=parallelogram;perimeter=parallelogramPerimeter;whiteSpace=wrap;html=1;fixedSize=1;fillColor=#d5e8d4;strokeColor=#82b366;" parent="1" vertex="1">
          <mxGeometry x="-100" y="-560" width="140" height="60" as="geometry" />
        </mxCell>
        <mxCell id="rsNm4_ssENzMFWjYRmB5-37" style="edgeStyle=orthogonalEdgeStyle;rounded=0;orthogonalLoop=1;jettySize=auto;html=1;entryX=0;entryY=0.75;entryDx=0;entryDy=0;" parent="1" source="rsNm4_ssENzMFWjYRmB5-31" target="rsNm4_ssENzMFWjYRmB5-35" edge="1">
          <mxGeometry relative="1" as="geometry">
            <Array as="points">
              <mxPoint x="100" y="-410" />
              <mxPoint x="100" y="-575" />
            </Array>
          </mxGeometry>
        </mxCell>
        <mxCell id="rsNm4_ssENzMFWjYRmB5-31" value="Desviación estándar" style="shape=parallelogram;perimeter=parallelogramPerimeter;whiteSpace=wrap;html=1;fixedSize=1;fillColor=#d5e8d4;strokeColor=#82b366;" parent="1" vertex="1">
          <mxGeometry x="-100" y="-440" width="140" height="60" as="geometry" />
        </mxCell>
        <mxCell id="rsNm4_ssENzMFWjYRmB5-46" value="" style="edgeStyle=orthogonalEdgeStyle;rounded=0;orthogonalLoop=1;jettySize=auto;html=1;strokeColor=#009900;" parent="1" source="rsNm4_ssENzMFWjYRmB5-35" target="rsNm4_ssENzMFWjYRmB5-45" edge="1">
          <mxGeometry relative="1" as="geometry" />
        </mxCell>
        <mxCell id="rsNm4_ssENzMFWjYRmB5-84" value="" style="edgeStyle=orthogonalEdgeStyle;rounded=0;orthogonalLoop=1;jettySize=auto;html=1;strokeColor=#0000FF;" parent="1" source="rsNm4_ssENzMFWjYRmB5-35" target="rsNm4_ssENzMFWjYRmB5-80" edge="1">
          <mxGeometry relative="1" as="geometry" />
        </mxCell>
        <mxCell id="rsNm4_ssENzMFWjYRmB5-35" value="&amp;lt; CÁLCULO PERT &amp;gt;" style="rounded=1;whiteSpace=wrap;html=1;fillColor=#ffe6cc;strokeColor=#d79b00;" parent="1" vertex="1">
          <mxGeometry x="127" y="-614" width="160" height="60" as="geometry" />
        </mxCell>
        <mxCell id="rsNm4_ssENzMFWjYRmB5-43" value="" style="edgeStyle=orthogonalEdgeStyle;rounded=0;orthogonalLoop=1;jettySize=auto;html=1;strokeColor=#0000FF;" parent="1" source="rsNm4_ssENzMFWjYRmB5-39" target="rsNm4_ssENzMFWjYRmB5-40" edge="1">
          <mxGeometry relative="1" as="geometry" />
        </mxCell>
        <mxCell id="rsNm4_ssENzMFWjYRmB5-39" value="&amp;lt; OPTIMIZAR TIEMPOS &amp;gt;" style="rounded=1;whiteSpace=wrap;html=1;fillColor=#e1d5e7;strokeColor=#9673a6;" parent="1" vertex="1">
          <mxGeometry x="127" y="-800" width="160" height="60" as="geometry" />
        </mxCell>
        <mxCell id="rsNm4_ssENzMFWjYRmB5-41" style="edgeStyle=orthogonalEdgeStyle;rounded=0;orthogonalLoop=1;jettySize=auto;html=1;strokeColor=#0000FF;" parent="1" source="rsNm4_ssENzMFWjYRmB5-40" target="rsNm4_ssENzMFWjYRmB5-5" edge="1">
          <mxGeometry relative="1" as="geometry" />
        </mxCell>
        <mxCell id="rsNm4_ssENzMFWjYRmB5-40" value="&amp;lt; RECALCULAR COSTOS &amp;gt;" style="rounded=1;whiteSpace=wrap;html=1;fillColor=#e1d5e7;strokeColor=#9673a6;" parent="1" vertex="1">
          <mxGeometry x="127" y="-880" width="160" height="60" as="geometry" />
        </mxCell>
        <mxCell id="rsNm4_ssENzMFWjYRmB5-45" value="Informe de actividades" style="shape=parallelogram;perimeter=parallelogramPerimeter;whiteSpace=wrap;html=1;fixedSize=1;fillColor=#d5e8d4;strokeColor=#82b366;" parent="1" vertex="1">
          <mxGeometry x="127" y="-440" width="160" height="60" as="geometry" />
        </mxCell>
        <mxCell id="rsNm4_ssENzMFWjYRmB5-49" value="CÁLCULO PERT" style="rounded=0;whiteSpace=wrap;html=1;" parent="1" vertex="1">
          <mxGeometry x="-390" y="-960" width="190" height="60" as="geometry" />
        </mxCell>
        <mxCell id="rsNm4_ssENzMFWjYRmB5-59" style="edgeStyle=orthogonalEdgeStyle;rounded=0;orthogonalLoop=1;jettySize=auto;html=1;endArrow=none;endFill=0;entryX=1.002;entryY=0.36;entryDx=0;entryDy=0;entryPerimeter=0;" parent="1" source="rsNm4_ssENzMFWjYRmB5-50" target="rsNm4_ssENzMFWjYRmB5-17" edge="1">
          <mxGeometry relative="1" as="geometry">
            <mxPoint x="-619.9999999999998" y="-600" as="targetPoint" />
          </mxGeometry>
        </mxCell>
        <mxCell id="rsNm4_ssENzMFWjYRmB5-50" value="Visualización&lt;br&gt;de datos" style="shape=providedRequiredInterface;html=1;verticalLabelPosition=bottom;sketch=0;verticalAlign=top;" parent="1" vertex="1">
          <mxGeometry x="-450" y="-610" width="20" height="20" as="geometry" />
        </mxCell>
        <mxCell id="rsNm4_ssENzMFWjYRmB5-56" value="" style="edgeStyle=orthogonalEdgeStyle;rounded=0;orthogonalLoop=1;jettySize=auto;html=1;strokeColor=#0000FF;" parent="1" source="rsNm4_ssENzMFWjYRmB5-55" target="rsNm4_ssENzMFWjYRmB5-5" edge="1">
          <mxGeometry relative="1" as="geometry" />
        </mxCell>
        <mxCell id="rsNm4_ssENzMFWjYRmB5-57" value="" style="edgeStyle=orthogonalEdgeStyle;rounded=0;orthogonalLoop=1;jettySize=auto;html=1;" parent="1" source="rsNm4_ssENzMFWjYRmB5-55" target="rsNm4_ssENzMFWjYRmB5-27" edge="1">
          <mxGeometry relative="1" as="geometry" />
        </mxCell>
        <mxCell id="rsNm4_ssENzMFWjYRmB5-55" value="INTERFAZ GRÁFICA" style="shape=cube;whiteSpace=wrap;html=1;boundedLbl=1;backgroundOutline=1;darkOpacity=0.05;darkOpacity2=0.1;" parent="1" vertex="1">
          <mxGeometry x="-310" y="-640" width="120" height="80" as="geometry" />
        </mxCell>
        <mxCell id="rsNm4_ssENzMFWjYRmB5-58" style="edgeStyle=orthogonalEdgeStyle;rounded=0;orthogonalLoop=1;jettySize=auto;html=1;entryX=1;entryY=0.5;entryDx=0;entryDy=0;entryPerimeter=0;" parent="1" source="rsNm4_ssENzMFWjYRmB5-55" target="rsNm4_ssENzMFWjYRmB5-50" edge="1">
          <mxGeometry relative="1" as="geometry" />
        </mxCell>
        <mxCell id="rsNm4_ssENzMFWjYRmB5-60" style="edgeStyle=orthogonalEdgeStyle;rounded=0;orthogonalLoop=1;jettySize=auto;html=1;entryX=0.528;entryY=0.117;entryDx=0;entryDy=0;entryPerimeter=0;endArrow=none;endFill=0;" parent="1" source="rsNm4_ssENzMFWjYRmB5-21" target="rsNm4_ssENzMFWjYRmB5-50" edge="1">
          <mxGeometry relative="1" as="geometry" />
        </mxCell>
        <mxCell id="rsNm4_ssENzMFWjYRmB5-61" style="edgeStyle=orthogonalEdgeStyle;rounded=0;orthogonalLoop=1;jettySize=auto;html=1;entryX=0;entryY=0;entryDx=0;entryDy=60;entryPerimeter=0;strokeColor=#009900;" parent="1" source="rsNm4_ssENzMFWjYRmB5-45" target="rsNm4_ssENzMFWjYRmB5-55" edge="1">
          <mxGeometry relative="1" as="geometry">
            <Array as="points">
              <mxPoint x="207" y="-350" />
              <mxPoint x="-350" y="-350" />
              <mxPoint x="-350" y="-580" />
            </Array>
          </mxGeometry>
        </mxCell>
        <mxCell id="rsNm4_ssENzMFWjYRmB5-64" value="OPTIMIZACIÓN DE ACTIVIDADES" style="rounded=0;whiteSpace=wrap;html=1;" parent="1" vertex="1">
          <mxGeometry x="-720" y="-1050" width="190" height="60" as="geometry" />
        </mxCell>
        <mxCell id="rsNm4_ssENzMFWjYRmB5-69" style="edgeStyle=orthogonalEdgeStyle;rounded=0;orthogonalLoop=1;jettySize=auto;html=1;endArrow=none;endFill=0;" parent="1" source="rsNm4_ssENzMFWjYRmB5-68" target="rsNm4_ssENzMFWjYRmB5-50" edge="1">
          <mxGeometry relative="1" as="geometry" />
        </mxCell>
        <mxCell id="rsNm4_ssENzMFWjYRmB5-68" value="Costos al DÍA" style="rounded=0;whiteSpace=wrap;html=1;" parent="1" vertex="1">
          <mxGeometry x="-690" y="-370" width="190" height="60" as="geometry" />
        </mxCell>
        <mxCell id="rsNm4_ssENzMFWjYRmB5-79" value="" style="edgeStyle=orthogonalEdgeStyle;rounded=0;orthogonalLoop=1;jettySize=auto;html=1;strokeColor=#009900;" parent="1" source="rsNm4_ssENzMFWjYRmB5-70" target="rsNm4_ssENzMFWjYRmB5-75" edge="1">
          <mxGeometry relative="1" as="geometry" />
        </mxCell>
        <mxCell id="rsNm4_ssENzMFWjYRmB5-70" value="Cálculos optimziados" style="shape=parallelogram;perimeter=parallelogramPerimeter;whiteSpace=wrap;html=1;fixedSize=1;fillColor=#d5e8d4;strokeColor=#82b366;" parent="1" vertex="1">
          <mxGeometry x="450" y="-705" width="160" height="60" as="geometry" />
        </mxCell>
        <mxCell id="rsNm4_ssENzMFWjYRmB5-74" value="COSTOS ACTUALES" style="rounded=0;whiteSpace=wrap;html=1;" parent="1" vertex="1">
          <mxGeometry x="414" y="-1050" width="190" height="60" as="geometry" />
        </mxCell>
        <mxCell id="rsNm4_ssENzMFWjYRmB5-77" style="edgeStyle=orthogonalEdgeStyle;rounded=0;orthogonalLoop=1;jettySize=auto;html=1;strokeColor=#009900;exitX=0.196;exitY=1.037;exitDx=0;exitDy=0;exitPerimeter=0;" parent="1" source="rsNm4_ssENzMFWjYRmB5-75" target="rsNm4_ssENzMFWjYRmB5-76" edge="1">
          <mxGeometry relative="1" as="geometry" />
        </mxCell>
        <mxCell id="rsNm4_ssENzMFWjYRmB5-89" value="" style="edgeStyle=orthogonalEdgeStyle;rounded=0;orthogonalLoop=1;jettySize=auto;html=1;strokeColor=#009900;" parent="1" source="rsNm4_ssENzMFWjYRmB5-75" target="rsNm4_ssENzMFWjYRmB5-88" edge="1">
          <mxGeometry relative="1" as="geometry" />
        </mxCell>
        <mxCell id="rsNm4_ssENzMFWjYRmB5-75" value="&amp;lt; CALCULAR HOLGURAS &amp;gt;" style="rounded=1;whiteSpace=wrap;html=1;fillColor=#e1d5e7;strokeColor=#9673a6;" parent="1" vertex="1">
          <mxGeometry x="660" y="-705" width="200" height="60" as="geometry" />
        </mxCell>
        <mxCell id="rsNm4_ssENzMFWjYRmB5-78" style="edgeStyle=orthogonalEdgeStyle;rounded=0;orthogonalLoop=1;jettySize=auto;html=1;strokeColor=#009900;exitX=0.5;exitY=1;exitDx=0;exitDy=0;" parent="1" source="rsNm4_ssENzMFWjYRmB5-76" edge="1">
          <mxGeometry relative="1" as="geometry">
            <mxPoint x="207.5" y="-350" as="targetPoint" />
            <Array as="points">
              <mxPoint x="620" y="-350" />
            </Array>
          </mxGeometry>
        </mxCell>
        <mxCell id="rsNm4_ssENzMFWjYRmB5-76" value="GRÁFICA DE HOLGURAS" style="rounded=1;whiteSpace=wrap;html=1;fillColor=#e1d5e7;strokeColor=#9673a6;" parent="1" vertex="1">
          <mxGeometry x="520" y="-520" width="200" height="60" as="geometry" />
        </mxCell>
        <mxCell id="rsNm4_ssENzMFWjYRmB5-81" value="" style="edgeStyle=orthogonalEdgeStyle;rounded=0;orthogonalLoop=1;jettySize=auto;html=1;entryX=0.5;entryY=1;entryDx=0;entryDy=0;strokeColor=#0000FF;" parent="1" source="rsNm4_ssENzMFWjYRmB5-80" target="rsNm4_ssENzMFWjYRmB5-39" edge="1">
          <mxGeometry relative="1" as="geometry" />
        </mxCell>
        <mxCell id="rsNm4_ssENzMFWjYRmB5-82" value="No" style="edgeLabel;html=1;align=center;verticalAlign=middle;resizable=0;points=[];" parent="rsNm4_ssENzMFWjYRmB5-81" vertex="1" connectable="0">
          <mxGeometry x="0.14" y="-4" relative="1" as="geometry">
            <mxPoint as="offset" />
          </mxGeometry>
        </mxCell>
        <mxCell id="rsNm4_ssENzMFWjYRmB5-83" style="edgeStyle=orthogonalEdgeStyle;rounded=0;orthogonalLoop=1;jettySize=auto;html=1;strokeColor=#009900;" parent="1" source="rsNm4_ssENzMFWjYRmB5-80" target="rsNm4_ssENzMFWjYRmB5-70" edge="1">
          <mxGeometry relative="1" as="geometry" />
        </mxCell>
        <mxCell id="rsNm4_ssENzMFWjYRmB5-80" value="¿Llegó al valor esperado?" style="rhombus;whiteSpace=wrap;html=1;fillColor=#f8cecc;strokeColor=#b85450;" parent="1" vertex="1">
          <mxGeometry x="150.5" y="-710" width="113" height="70" as="geometry" />
        </mxCell>
        <mxCell id="rsNm4_ssENzMFWjYRmB5-86" style="edgeStyle=orthogonalEdgeStyle;rounded=0;orthogonalLoop=1;jettySize=auto;html=1;entryX=0.75;entryY=1;entryDx=0;entryDy=0;strokeColor=#009900;startArrow=classic;startFill=1;endArrow=none;endFill=0;" parent="1" source="rsNm4_ssENzMFWjYRmB5-85" target="rsNm4_ssENzMFWjYRmB5-75" edge="1">
          <mxGeometry relative="1" as="geometry" />
        </mxCell>
        <mxCell id="rsNm4_ssENzMFWjYRmB5-87" style="edgeStyle=orthogonalEdgeStyle;rounded=0;orthogonalLoop=1;jettySize=auto;html=1;strokeColor=#009900;" parent="1" source="rsNm4_ssENzMFWjYRmB5-85" edge="1">
          <mxGeometry relative="1" as="geometry">
            <mxPoint x="620" y="-350" as="targetPoint" />
            <Array as="points">
              <mxPoint x="900" y="-350" />
            </Array>
          </mxGeometry>
        </mxCell>
        <mxCell id="rsNm4_ssENzMFWjYRmB5-85" value="GRÁFICA DE TIEMPOS" style="rounded=1;whiteSpace=wrap;html=1;fillColor=#e1d5e7;strokeColor=#9673a6;" parent="1" vertex="1">
          <mxGeometry x="800" y="-520" width="200" height="60" as="geometry" />
        </mxCell>
        <mxCell id="rsNm4_ssENzMFWjYRmB5-90" style="edgeStyle=orthogonalEdgeStyle;rounded=0;orthogonalLoop=1;jettySize=auto;html=1;strokeColor=#009900;exitX=0.5;exitY=1;exitDx=0;exitDy=0;" parent="1" source="rsNm4_ssENzMFWjYRmB5-91" edge="1">
          <mxGeometry relative="1" as="geometry">
            <mxPoint x="899.9999999999995" y="-350" as="targetPoint" />
            <Array as="points">
              <mxPoint x="1110" y="-350" />
            </Array>
          </mxGeometry>
        </mxCell>
        <mxCell id="rsNm4_ssENzMFWjYRmB5-93" value="" style="edgeStyle=orthogonalEdgeStyle;rounded=0;orthogonalLoop=1;jettySize=auto;html=1;strokeColor=#009900;" parent="1" source="rsNm4_ssENzMFWjYRmB5-88" target="rsNm4_ssENzMFWjYRmB5-91" edge="1">
          <mxGeometry relative="1" as="geometry" />
        </mxCell>
        <mxCell id="rsNm4_ssENzMFWjYRmB5-88" value="&amp;lt; CALCULAR COSTOS &amp;gt;" style="rounded=1;whiteSpace=wrap;html=1;fillColor=#e1d5e7;strokeColor=#9673a6;" parent="1" vertex="1">
          <mxGeometry x="1010" y="-705" width="200" height="60" as="geometry" />
        </mxCell>
        <mxCell id="rsNm4_ssENzMFWjYRmB5-91" value="CPA / CRA / VDA" style="shape=parallelogram;perimeter=parallelogramPerimeter;whiteSpace=wrap;html=1;fixedSize=1;fillColor=#d5e8d4;strokeColor=#82b366;" parent="1" vertex="1">
          <mxGeometry x="1030" y="-520" width="160" height="60" as="geometry" />
        </mxCell>
      </root>
    </mxGraphModel>
  </diagram>
</mxfile>
